<svg width="87" height="27" viewBox="0 0 87 27" fill="none" xmlns="http://www.w3.org/2000/svg">
<path d="M5.63672 23.4336C4.47266 23.4336 2.98438 23.1797 1.17188 22.6719V20.2344C3.125 21.1406 4.73047 21.5938 5.98828 21.5938C6.95703 21.5938 7.73438 21.3398 8.32031 20.832C8.91406 20.3242 9.21094 19.6562 9.21094 18.8281C9.21094 18.1484 9.01562 17.5703 8.625 17.0938C8.24219 16.6172 7.53125 16.0859 6.49219 15.5L5.29688 14.8086C3.82031 13.9648 2.77734 13.1719 2.16797 12.4297C1.56641 11.6797 1.26562 10.8086 1.26562 9.81641C1.26562 8.48047 1.75 7.38281 2.71875 6.52344C3.6875 5.65625 4.92188 5.22266 6.42188 5.22266C7.75781 5.22266 9.16797 5.44531 10.6523 5.89062V8.14062C8.82422 7.42188 7.46094 7.0625 6.5625 7.0625C5.71094 7.0625 5.00781 7.28906 4.45312 7.74219C3.89844 8.19531 3.62109 8.76562 3.62109 9.45312C3.62109 10.0312 3.82422 10.543 4.23047 10.9883C4.63672 11.4336 5.37891 11.9648 6.45703 12.582L7.69922 13.2852C9.19922 14.1367 10.2461 14.9414 10.8398 15.6992C11.4336 16.457 11.7305 17.3672 11.7305 18.4297C11.7305 19.9375 11.1719 21.1484 10.0547 22.0625C8.94531 22.9766 7.47266 23.4336 5.63672 23.4336ZM19.9102 23L13.3594 5.65625H15.8203L21.1875 19.8594L26.3672 5.65625H28.5234L22.2305 23H19.9102ZM35.0039 23V7.49609H28.8516V5.65625H43.6172V7.49609H37.4648V23H35.0039ZM55.4648 22.5898C53.918 23.0586 52.5938 23.293 51.4922 23.293C49.6172 23.293 48.0859 22.6719 46.8984 21.4297C45.7188 20.1797 45.1289 18.5625 45.1289 16.5781C45.1289 14.6484 45.6484 13.0664 46.6875 11.832C47.7344 10.5977 49.0703 9.98047 50.6953 9.98047C52.2344 9.98047 53.4219 10.5273 54.2578 11.6211C55.1016 12.7148 55.5234 14.2695 55.5234 16.2852L55.5117 17H47.4844C47.8203 20.0234 49.3008 21.5352 51.9258 21.5352C52.8867 21.5352 54.0664 21.2773 55.4648 20.7617V22.5898ZM47.5898 15.2656H53.2031C53.2031 12.8984 52.3203 11.7148 50.5547 11.7148C48.7812 11.7148 47.793 12.8984 47.5898 15.2656ZM64.4883 23.293C62.7695 23.293 61.3438 22.6562 60.2109 21.3828C59.0781 20.1094 58.5117 18.5039 58.5117 16.5664C58.5117 14.4961 59.0703 12.8828 60.1875 11.7266C61.3125 10.5703 62.8789 9.99219 64.8867 9.99219C65.8789 9.99219 66.9883 10.1289 68.2148 10.4023V12.3359C66.9102 11.9531 65.8477 11.7617 65.0273 11.7617C63.8477 11.7617 62.8984 12.207 62.1797 13.0977C61.4688 13.9805 61.1133 15.1602 61.1133 16.6367C61.1133 18.0664 61.4805 19.2227 62.2148 20.1055C62.9492 20.9883 63.9102 21.4297 65.0977 21.4297C66.1523 21.4297 67.2383 21.1602 68.3555 20.6211V22.6133C66.8633 23.0664 65.5742 23.293 64.4883 23.293ZM71.8242 23V4.49609H74.1328V12.6641C75.3516 10.8828 76.8438 9.99219 78.6094 9.99219C79.7109 9.99219 80.5898 10.3438 81.2461 11.0469C81.9023 11.7422 82.2305 12.6797 82.2305 13.8594V23H79.9219V14.6094C79.9219 13.6641 79.7812 12.9922 79.5 12.5938C79.2266 12.1875 78.7695 11.9844 78.1289 11.9844C76.7148 11.9844 75.3828 12.9102 74.1328 14.7617V23H71.8242Z" fill="#F9FAFC"/>
</svg>
