<svg width="268" height="32" viewBox="0 0 268 32" fill="none" xmlns="http://www.w3.org/2000/svg">
<path d="M13.8 24.6L0.2 19.4V14.6L13.8 9.4V13.4L4.04 17L13.8 20.6V24.6ZM29.9756 29.4C27.069 29.4 24.4956 29.2667 22.2556 29C20.0156 28.7333 18.4023 28.4667 17.4156 28.2V27.4L16.6156 23.12C16.989 23.5467 17.6956 24 18.7356 24.48C19.8023 24.96 21.2156 25.3733 22.9756 25.72C24.7356 26.04 26.829 26.2 29.2556 26.2C31.4423 26.2 33.0956 26.0533 34.2156 25.76C35.3623 25.44 36.1356 25.0133 36.5356 24.48C36.9623 23.92 37.1756 23.28 37.1756 22.56C37.1756 21.7067 36.829 21.0267 36.1356 20.52C35.4423 20.0133 34.4023 19.6133 33.0156 19.32C31.6556 19 29.9623 18.72 27.9356 18.48C25.2956 18.1333 23.1756 17.68 21.5756 17.12C19.9756 16.5333 18.8156 15.76 18.0956 14.8C17.3756 13.84 17.0156 12.6267 17.0156 11.16C17.0156 9.90667 17.389 8.78667 18.1356 7.8C18.909 6.81333 20.069 6.04 21.6156 5.48C23.1623 4.89333 25.1356 4.6 27.5356 4.6C30.309 4.6 32.7223 4.73333 34.7756 5C36.829 5.26667 38.2823 5.53333 39.1356 5.8V6.6L40.3356 10.2C39.7756 9.85333 38.909 9.49333 37.7356 9.12C36.589 8.74667 35.2023 8.44 33.5756 8.2C31.949 7.93333 30.1356 7.8 28.1356 7.8C26.4823 7.8 25.1623 7.92 24.1756 8.16C23.2156 8.4 22.5223 8.76 22.0956 9.24C21.6956 9.69333 21.4956 10.2533 21.4956 10.92C21.4956 11.8 21.8156 12.5067 22.4556 13.04C23.1223 13.5733 24.0823 13.9867 25.3356 14.28C26.6156 14.5733 28.1623 14.8267 29.9756 15.04C32.8556 15.36 35.149 15.8133 36.8556 16.4C38.5623 16.9867 39.789 17.7733 40.5356 18.76C41.2823 19.7467 41.6556 21.0267 41.6556 22.6C41.6556 23.64 41.4023 24.5867 40.8956 25.44C40.4156 26.2667 39.6823 26.9867 38.6956 27.6C37.709 28.1867 36.4823 28.64 35.0156 28.96C33.5756 29.2533 31.8956 29.4 29.9756 29.4ZM45.0978 29C45.2845 29 45.4578 28.8133 45.6178 28.44C45.8045 28.0667 45.8978 27.4533 45.8978 26.6V12.68C45.8978 11.8267 45.8045 11.2267 45.6178 10.88C45.4578 10.5067 45.2845 10.3067 45.0978 10.28H49.9778V26.6C49.9778 27.4533 50.0578 28.0667 50.2178 28.44C50.4045 28.8133 50.5911 29 50.7778 29H45.0978ZM47.5378 6.44C46.7645 6.44 46.1645 6.22667 45.7378 5.8C45.3111 5.34667 45.0978 4.82667 45.0978 4.24C45.0978 3.62667 45.2978 3.10667 45.6978 2.68C46.1245 2.25333 46.7378 2.04 47.5378 2.04C48.3378 2.04 48.9378 2.25333 49.3378 2.68C49.7645 3.10667 49.9778 3.62667 49.9778 4.24C49.9778 4.82667 49.7645 5.34667 49.3378 5.8C48.9111 6.22667 48.3111 6.44 47.5378 6.44ZM54.3594 29C54.546 29 54.7194 28.8133 54.8794 28.44C55.066 28.0667 55.1594 27.4533 55.1594 26.6V3.8C55.1594 2.94666 55.066 2.34666 54.8794 2C54.7194 1.62667 54.546 1.42667 54.3594 1.4C55.5327 1.4 56.546 1.32 57.3994 1.16C58.2794 0.973333 58.8927 0.786666 59.2394 0.599998V26.6C59.2394 27.4533 59.3194 28.0667 59.4794 28.44C59.666 28.8133 59.8527 29 60.0394 29H54.3594ZM64.0469 29C64.2335 29 64.4069 28.8133 64.5669 28.44C64.7535 28.0667 64.8469 27.4533 64.8469 26.6V3.8C64.8469 2.94666 64.7535 2.34666 64.5669 2C64.4069 1.62667 64.2335 1.42667 64.0469 1.4C65.2202 1.4 66.2335 1.32 67.0869 1.16C67.9669 0.973333 68.5802 0.786666 68.9269 0.599998V26.6C68.9269 27.4533 69.0069 28.0667 69.1669 28.44C69.3535 28.8133 69.5402 29 69.7269 29H64.0469ZM81.2144 29.4C78.3077 29.4 76.2677 28.88 75.0944 27.84C73.921 26.7733 73.3344 25.3467 73.3344 23.56C73.3344 22.3067 73.641 21.24 74.2544 20.36C74.8944 19.4533 75.841 18.76 77.0944 18.28C78.3744 17.8 79.9877 17.56 81.9344 17.56C83.321 17.56 84.521 17.6667 85.5344 17.88C86.5744 18.0667 87.4144 18.2933 88.0544 18.56C88.721 18.8267 89.1877 19.0533 89.4544 19.24C89.4544 17.6667 89.2544 16.4 88.8544 15.44C88.481 14.48 87.8677 13.7867 87.0144 13.36C86.161 12.9067 85.001 12.68 83.5344 12.68C81.961 12.68 80.5477 12.8667 79.2944 13.24C78.0677 13.5867 77.081 13.9733 76.3344 14.4C75.5877 14.8 75.121 15.0933 74.9344 15.28V14.48L74.5344 11.48C74.7744 11.3733 75.2944 11.2 76.0944 10.96C76.8944 10.6933 77.9477 10.4533 79.2544 10.24C80.561 10 82.0944 9.88 83.8544 9.88C86.0944 9.88 87.921 10.2 89.3344 10.84C90.7744 11.4533 91.8277 12.4133 92.4944 13.72C93.1877 15 93.5344 16.6267 93.5344 18.6V26.6C93.5344 27.3467 93.6144 27.8933 93.7744 28.24C93.961 28.56 94.1477 28.8133 94.3344 29H89.4544V27.8L89.5344 27.04L89.4544 27C89.0277 27.4 88.521 27.7467 87.9344 28.04C87.3477 28.3333 86.7077 28.5867 86.0144 28.8C85.321 28.9867 84.561 29.1333 83.7344 29.24C82.9344 29.3467 82.0944 29.4 81.2144 29.4ZM82.5344 26.56C83.9744 26.56 85.2144 26.4133 86.2544 26.12C87.2944 25.8267 88.081 25.44 88.6144 24.96C89.1744 24.4533 89.4544 23.88 89.4544 23.24C89.4544 22.44 88.921 21.76 87.8544 21.2C86.8144 20.64 85.1877 20.36 82.9744 20.36C80.921 20.36 79.4677 20.6267 78.6144 21.16C77.7877 21.6933 77.3744 22.4933 77.3744 23.56C77.3744 24.6 77.7744 25.36 78.5744 25.84C79.401 26.32 80.721 26.56 82.5344 26.56ZM108.153 29.4C105.646 29.4 103.54 29.2667 101.833 29C100.153 28.7333 99.0065 28.4667 98.3931 28.2V27.4L97.5531 23.96C98.2465 24.52 99.4598 25.1067 101.193 25.72C102.953 26.3067 105.086 26.6 107.593 26.6C109.246 26.6 110.486 26.4933 111.313 26.28C112.14 26.04 112.686 25.7333 112.953 25.36C113.22 24.96 113.353 24.52 113.353 24.04C113.353 23.48 113.153 23.04 112.753 22.72C112.38 22.3733 111.66 22.0933 110.593 21.88C109.553 21.64 108.006 21.4 105.953 21.16C103.713 20.8933 101.98 20.5067 100.753 20C99.5531 19.4933 98.7265 18.8533 98.2731 18.08C97.8198 17.28 97.5931 16.3333 97.5931 15.24C97.5931 14.3867 97.8198 13.5467 98.2731 12.72C98.7265 11.8933 99.5665 11.2133 100.793 10.68C102.046 10.1467 103.82 9.88 106.113 9.88C108.593 9.88 110.673 10.0133 112.353 10.28C114.06 10.5467 115.22 10.8133 115.833 11.08V11.88L116.633 14.92C115.966 14.44 114.753 13.9467 112.993 13.44C111.233 12.9333 109.113 12.68 106.633 12.68C104.66 12.68 103.34 12.9067 102.673 13.36C102.006 13.7867 101.673 14.3467 101.673 15.04C101.673 15.44 101.753 15.8 101.913 16.12C102.073 16.4133 102.393 16.68 102.873 16.92C103.38 17.16 104.126 17.3733 105.113 17.56C106.126 17.7467 107.473 17.9333 109.153 18.12C111.42 18.36 113.14 18.7333 114.313 19.24C115.486 19.7467 116.286 20.3867 116.713 21.16C117.166 21.9067 117.393 22.7867 117.393 23.8C117.393 24.8933 117.086 25.8667 116.473 26.72C115.886 27.5467 114.913 28.2 113.553 28.68C112.193 29.16 110.393 29.4 108.153 29.4ZM139.975 29C140.162 29 140.282 28.8133 140.335 28.44C140.415 28.0667 140.295 27.44 139.975 26.56C139.868 26.2667 139.602 25.6667 139.175 24.76C138.748 23.8267 138.228 22.7067 137.615 21.4C137.002 20.0933 136.348 18.72 135.655 17.28C134.962 15.84 134.282 14.4533 133.615 13.12C132.975 11.7867 132.402 10.6133 131.895 9.6C131.388 8.58667 131.028 7.88 130.815 7.48C130.362 6.62666 129.948 6.01333 129.575 5.64C129.228 5.24 128.962 5.02667 128.775 5H136.175C135.935 5 135.775 5.18667 135.695 5.56C135.615 5.93333 135.775 6.57333 136.175 7.48C136.335 7.82667 136.588 8.44 136.935 9.32C137.308 10.2 137.735 11.2533 138.215 12.48C138.722 13.68 139.255 14.9733 139.815 16.36C140.402 17.7467 140.975 19.16 141.535 20.6C142.122 22.0133 142.668 23.3467 143.175 24.6H143.215C143.722 23.32 144.268 21.9733 144.855 20.56C145.442 19.12 146.028 17.6933 146.615 16.28C147.202 14.8667 147.748 13.56 148.255 12.36C148.762 11.1333 149.188 10.0933 149.535 9.24C149.908 8.36 150.162 7.74667 150.295 7.4C150.668 6.54667 150.815 5.93333 150.735 5.56C150.655 5.18667 150.508 5 150.295 5H157.455C157.295 5 157.042 5.18667 156.695 5.56C156.375 5.90667 156.002 6.50667 155.575 7.36C155.388 7.73333 155.042 8.41333 154.535 9.4C154.055 10.36 153.482 11.5067 152.815 12.84C152.175 14.1467 151.495 15.52 150.775 16.96C150.082 18.3733 149.415 19.7333 148.775 21.04C148.162 22.3467 147.628 23.4933 147.175 24.48C146.748 25.4667 146.482 26.16 146.375 26.56C146.135 27.44 146.042 28.0667 146.095 28.44C146.148 28.8133 146.242 29 146.375 29H139.975ZM159.707 29C159.894 29 160.067 28.8133 160.227 28.44C160.414 28.0667 160.507 27.4533 160.507 26.6V12.68C160.507 11.8267 160.414 11.2267 160.227 10.88C160.067 10.5067 159.894 10.3067 159.707 10.28H164.587V26.6C164.587 27.4533 164.667 28.0667 164.827 28.44C165.014 28.8133 165.201 29 165.387 29H159.707ZM162.147 6.44C161.374 6.44 160.774 6.22667 160.347 5.8C159.921 5.34667 159.707 4.82667 159.707 4.24C159.707 3.62667 159.907 3.10667 160.307 2.68C160.734 2.25333 161.347 2.04 162.147 2.04C162.947 2.04 163.547 2.25333 163.947 2.68C164.374 3.10667 164.587 3.62667 164.587 4.24C164.587 4.82667 164.374 5.34667 163.947 5.8C163.521 6.22667 162.921 6.44 162.147 6.44ZM178.009 29.4C175.475 29.4 173.502 28.9733 172.089 28.12C170.702 27.2667 169.729 26.1067 169.169 24.64C168.635 23.1733 168.369 21.52 168.369 19.68C168.369 17.8133 168.635 16.1467 169.169 14.68C169.729 13.2133 170.702 12.0533 172.089 11.2C173.502 10.32 175.475 9.88 178.009 9.88C179.075 9.88 180.022 9.98667 180.849 10.2C181.675 10.3867 182.395 10.6533 183.009 11C183.622 11.32 184.129 11.7067 184.529 12.16L184.609 12.12L184.529 11.36V3.8C184.529 2.94666 184.435 2.34666 184.249 2C184.089 1.62667 183.915 1.42667 183.729 1.4H188.609V26.6C188.609 27.4533 188.689 28.0667 188.849 28.44C189.035 28.8133 189.222 29 189.409 29H184.529V27.76L184.649 27L184.529 26.96C184.129 27.4133 183.622 27.8267 183.009 28.2C182.395 28.5733 181.675 28.8667 180.849 29.08C180.022 29.2933 179.075 29.4 178.009 29.4ZM178.289 26.56C179.649 26.56 180.742 26.36 181.569 25.96C182.395 25.5333 183.022 24.9867 183.449 24.32C183.875 23.6267 184.155 22.88 184.289 22.08C184.449 21.28 184.529 20.48 184.529 19.68C184.529 18.9867 184.449 18.24 184.289 17.44C184.129 16.6133 183.835 15.84 183.409 15.12C182.982 14.4 182.355 13.8133 181.529 13.36C180.702 12.9067 179.622 12.68 178.289 12.68C176.049 12.68 174.502 13.32 173.649 14.6C172.822 15.88 172.409 17.5867 172.409 19.72C172.409 21.1333 172.569 22.36 172.889 23.4C173.235 24.4133 173.835 25.2 174.689 25.76C175.542 26.2933 176.742 26.56 178.289 26.56ZM200.902 29.4C197.995 29.4 195.955 28.88 194.782 27.84C193.609 26.7733 193.022 25.3467 193.022 23.56C193.022 22.3067 193.329 21.24 193.942 20.36C194.582 19.4533 195.529 18.76 196.782 18.28C198.062 17.8 199.675 17.56 201.622 17.56C203.009 17.56 204.209 17.6667 205.222 17.88C206.262 18.0667 207.102 18.2933 207.742 18.56C208.409 18.8267 208.875 19.0533 209.142 19.24C209.142 17.6667 208.942 16.4 208.542 15.44C208.169 14.48 207.555 13.7867 206.702 13.36C205.849 12.9067 204.689 12.68 203.222 12.68C201.649 12.68 200.235 12.8667 198.982 13.24C197.755 13.5867 196.769 13.9733 196.022 14.4C195.275 14.8 194.809 15.0933 194.622 15.28V14.48L194.222 11.48C194.462 11.3733 194.982 11.2 195.782 10.96C196.582 10.6933 197.635 10.4533 198.942 10.24C200.249 10 201.782 9.88 203.542 9.88C205.782 9.88 207.609 10.2 209.022 10.84C210.462 11.4533 211.515 12.4133 212.182 13.72C212.875 15 213.222 16.6267 213.222 18.6V26.6C213.222 27.3467 213.302 27.8933 213.462 28.24C213.649 28.56 213.835 28.8133 214.022 29H209.142V27.8L209.222 27.04L209.142 27C208.715 27.4 208.209 27.7467 207.622 28.04C207.035 28.3333 206.395 28.5867 205.702 28.8C205.009 28.9867 204.249 29.1333 203.422 29.24C202.622 29.3467 201.782 29.4 200.902 29.4ZM202.222 26.56C203.662 26.56 204.902 26.4133 205.942 26.12C206.982 25.8267 207.769 25.44 208.302 24.96C208.862 24.4533 209.142 23.88 209.142 23.24C209.142 22.44 208.609 21.76 207.542 21.2C206.502 20.64 204.875 20.36 202.662 20.36C200.609 20.36 199.155 20.6267 198.302 21.16C197.475 21.6933 197.062 22.4933 197.062 23.56C197.062 24.6 197.462 25.36 198.262 25.84C199.089 26.32 200.409 26.56 202.222 26.56ZM217.641 29C217.827 29 218.001 28.8133 218.161 28.44C218.347 28.0667 218.441 27.4533 218.441 26.6V3.8C218.441 2.94666 218.347 2.34666 218.161 2C218.001 1.62667 217.827 1.42667 217.641 1.4C218.814 1.4 219.827 1.32 220.681 1.16C221.561 0.973333 222.174 0.786666 222.521 0.599998V26.6C222.521 27.4533 222.601 28.0667 222.761 28.44C222.947 28.8133 223.134 29 223.321 29H217.641ZM236.138 31.4L246.697 1.48H251.538L240.938 31.4H236.138ZM253.95 24.6V20.6L263.71 17L253.95 13.4V9.4L267.55 14.6V19.4L253.95 24.6Z" fill="white"/>
</svg>
